<?xml version="1.0" standalone="no"?><!DOCTYPE svg PUBLIC "-//W3C//DTD SVG 1.1//EN" "http://www.w3.org/Graphics/SVG/1.1/DTD/svg11.dtd">
<svg t="1624028913797" class="icon" viewBox="0 0 1024 1024" version="1.1" xmlns="http://www.w3.org/2000/svg" p-id="1465"
     width="200" height="200">
  <defs>
    <style type="text/css"></style>
  </defs>
  <path
    d="M94.444064 751.36146a22.665535 22.665535 0 0 1 32.964328 0c9.254582 8.722238 9.254582 23.750696 0 33.558096l-58.353003 58.107306c-9.234107 9.479804-24.610635 9.479804-33.517146 0a23.709747 23.709747 0 0 1 0-33.517146l58.905821-58.148256z m734.387902-409.310487c0 80.957114-65.662485 146.332952-146.660548 146.332952-81.039013 0-146.988144-65.375838-146.988144-146.332952 0-80.404296 65.949131-146.332952 146.988144-146.332953 80.998063 0 146.660548 65.314414 146.660548 146.332953z m-146.660548-99.445803a99.097732 99.097732 0 0 0-99.404853 99.425328c0 54.728975 44.368757 98.811086 99.404853 98.811086 54.810874 0 99.466277-44.082111 99.466277-98.811086a99.302479 99.302479 0 0 0-99.466277-99.425328zM140.819346 665.674682c0-30.46641 1.699403-60.339053 5.589603-90.784989 1.637979-10.646864 2.784564-21.191354 4.729664-31.838217l-8.374167 3.316907a174.649515 174.649515 0 0 0-53.111471 34.069964 39.782416 39.782416 0 0 1-55.588913-1.883676c-2.784564-3.685453-5.323432-6.797613-6.69524-10.401166A258.411668 258.411668 0 0 1 3.351955 411.542234a256.34372 256.34372 0 0 1 72.64437-142.156106c36.281236-37.161649 81.837528-60.277629 129.011324-70.678796a268.40334 268.40334 0 0 1 121.824691 3.091686l7.248057-7.268532 0.573293-1.085161h-0.573293a664.302874 664.302874 0 0 1 296.105661-170.636467 656.215353 656.215353 0 0 1 343.095185 0c14.291367 3.664978 24.569686 14.516589 28.214189 27.927543v0.839464a660.105553 660.105553 0 0 1-0.368545 342.071448 658.488049 658.488049 0 0 1-170.943588 295.696166l-2.538868 2.805039-5.548653 5.077735c10.93351 39.639093 11.732025 81.530407 3.11216 121.763267a257.776951 257.776951 0 0 1-70.39215 128.724677l-2.190797 2.313646a261.503354 261.503354 0 0 1-140.006258 70.617371 265.025009 265.025009 0 0 1-158.413048-24.549211c-18.980082-9.520753-26.801432-33.517146-17.301153-52.824824 1.678929-3.071211 3.910675-6.408593 6.695239-9.152208a177.536453 177.536453 0 0 0 34.090439-52.742925l3.337382-8.722238a637.091947 637.091947 0 0 1-126.288184 10.360217c-10.605914 0-20.065243-4.156372-27.35425-10.831136L151.650482 696.796283c-8.046572-8.763188-11.957247-19.696698-10.831136-31.121601z m83.250284-80.465721a697.08293 697.08293 0 0 0-5.016311 67.054767l152.536798 152.76202a659.57321 659.57321 0 0 0 66.993343-5.364381c27.129028-3.521655 54.503753-8.640339 81.039013-16.441215 3.8902-1.085161 8.333218-1.59703 12.571489-1.351332a38.840578 38.840578 0 0 1 37.673518 40.744728 261.79 261.79 0 0 1-19.512425 89.065111c-4.483968 9.725501-9.541228 20.106193-15.151306 29.913592a161.054289 161.054289 0 0 0 65.130141 1.12611 181.7133 181.7133 0 0 0 97.459753-48.83225l1.412757-1.678928c25.982443-25.388675 41.911789-57.308792 48.83225-89.904575 7.82135-34.029015 4.729664-69.859806-7.862299-102.701286-5.569129-14.004721-1.658454-31.592521 10.667338-42.464606l12.305318-11.7525 9.786925-10.032621 1.392282-1.392283a574.275451 574.275451 0 0 0 150.81692-260.254394c24.569686-91.337806 26.862856-188.203792 5.589603-280.647234a589.058212 589.058212 0 0 0-279.869193 5.87625 582.547245 582.547245 0 0 0-260.971011 151.083092l-10.89256 10.605914h-0.286647l-10.585439 11.7525c-10.667338 12.551014-27.968492 17.894921-43.897839 11.465853a181.467603 181.467603 0 0 0-102.496538-7.555179 178.826362 178.826362 0 0 0-90.252645 48.832251v-0.245697a176.799363 176.799363 0 0 0-50.572603 99.343428 173.830526 173.830526 0 0 0 1.16706 64.843496c10.032622-5.671502 20.085718-10.93351 30.138815-15.171781 28.500835-11.691075 58.086832-17.874446 88.225646-19.799072 4.217796 0 8.967935 0.348071 12.899085 1.9451 21.232303 5.05726 32.943853 27.35425 27.333775 48.05421a698.434262 698.434262 0 0 0-16.605013 81.120912z m15.6427 311.072695a23.218353 23.218353 0 0 1 32.964328 0 22.808858 22.808858 0 0 1 0 33.1486l-58.660124 58.742024c-9.213632 8.886036-24.037342 8.886036-32.902904 0-9.500278-8.926986-9.500278-24.59016 0-33.2305l58.5987-58.660124z m-72.64437-72.849118a23.709747 23.709747 0 0 1 32.964328 0c9.500278 9.520753 9.500278 24.344463 0 33.517146l-133.003898 133.167696a23.07503 23.07503 0 0 1-32.964328 0c-9.76645-9.520753-9.76645-24.385413 0-33.517146l133.003898-133.167696z"
    fill="#00C1DE" p-id="1466"></path>
</svg>
