<?xml version="1.0" standalone="no"?><!DOCTYPE svg PUBLIC "-//W3C//DTD SVG 1.1//EN" "http://www.w3.org/Graphics/SVG/1.1/DTD/svg11.dtd">
<svg t="1624028761230" class="icon" viewBox="0 0 1024 1024" version="1.1" xmlns="http://www.w3.org/2000/svg" p-id="1325"
     width="200" height="200">
  <defs>
    <style type="text/css"></style>
  </defs>
  <path
    d="M227.13912889 99.63292445l48.90927445 84.73562112A405.81347555 405.81347555 0 0 0 102.30518557 518.23805667C102.30518557 741.86145223 281.60682667 923.1777189 502.80296334 923.1777189S903.30074112 741.88572445 903.30074112 518.23805667c0-114.90645333-47.33155555-218.6232411-123.35331555-292.33910556l49.95299555-86.48324778A504.3602011 504.3602011 0 0 1 1000.39111112 518.5536C1000.39111112 796.45051221 777.61725668 1021.72444445 502.80296334 1021.72444445S5.21481444 796.47478557 5.21481444 518.57787221a504.14174777 504.14174777 0 0 1 221.92431445-418.94494776z"
    fill="#1296db" p-id="1326"></path>
  <path
    d="M545.08581888-0.8798811l84.08026112 48.54518443-200.05470776 346.49126001-84.08026112-48.54518556zM601.2525989 388.93795555l84.08025998 48.54518557-197.53035776 342.17073778-84.10453333-48.54518557z"
    fill="#1296db" p-id="1327"></path>
  <path d="M345.03111112 342.09185223h339.81629667v97.09036999H345.03111112z" fill="#1296db" p-id="1328"></path>
</svg>
